<svg width="210" height="88" viewBox="0 0 210 88" fill="none" xmlns="http://www.w3.org/2000/svg">
<path d="M42.2289 49.8237C45.4763 49.8237 48.1088 47.1566 48.1088 43.8666C48.1088 40.5765 45.4763 37.9094 42.2289 37.9094C38.9814 37.9094 36.3489 40.5765 36.3489 43.8666C36.3489 47.1566 38.9814 49.8237 42.2289 49.8237Z" fill="#7C3AED"/>
<path d="M42.2289 10.2896V26.5363" stroke="#FFB703" stroke-width="2.77778" stroke-linecap="round"/>
<path d="M42.2289 77.4428V61.196" stroke="#06D6A0" stroke-width="2.77778" stroke-linecap="round"/>
<path d="M9.0874 43.8662H25.1237" stroke="#3A86FF" stroke-width="2.77778" stroke-linecap="round"/>
<path d="M75.3705 43.8662H59.3342" stroke="#FB5607" stroke-width="2.77778" stroke-linecap="round"/>
<path d="M18.7091 20.0376L29.4 30.8688" stroke="#FF006E" stroke-width="2.77778" stroke-linecap="round"/>
<path d="M65.7488 67.6947L55.058 56.8635" stroke="#FF006E" stroke-width="2.77778" stroke-linecap="round"/>
<path d="M65.7488 20.0376L55.058 30.8688" stroke="#FFBE0B" stroke-width="2.77778" stroke-linecap="round"/>
<path d="M18.7091 67.6947L29.4 56.8635" stroke="#00C2FF" stroke-width="2.77778" stroke-linecap="round"/>
<path d="M42.229 5.41559C43.7051 5.41559 44.9017 4.20327 44.9017 2.70779C44.9017 1.21232 43.7051 0 42.229 0C40.7529 0 39.5563 1.21232 39.5563 2.70779C39.5563 4.20327 40.7529 5.41559 42.229 5.41559Z" fill="#FFB703"/>
<path d="M81.7851 46.574C83.2612 46.574 84.4579 45.3617 84.4579 43.8662C84.4579 42.3708 83.2612 41.1584 81.7851 41.1584C80.309 41.1584 79.1124 42.3708 79.1124 43.8662C79.1124 45.3617 80.309 46.574 81.7851 46.574Z" fill="#FB5607"/>
<path d="M2.67272 46.574C4.14882 46.574 5.34543 45.3617 5.34543 43.8662C5.34543 42.3708 4.14882 41.1584 2.67272 41.1584C1.19662 41.1584 0 42.3708 0 43.8662C0 45.3617 1.19662 46.574 2.67272 46.574Z" fill="#3A86FF"/>
<path d="M42.229 87.7327C43.7051 87.7327 44.9017 86.5204 44.9017 85.0249C44.9017 83.5295 43.7051 82.3171 42.229 82.3171C40.7529 82.3171 39.5563 83.5295 39.5563 85.0249C39.5563 86.5204 40.7529 87.7327 42.229 87.7327Z" fill="#06D6A0"/>
<path d="M95.9763 31.994H111.682V36.5862H101.797V40.9669H111.096V45.5586H101.797V55.5406H95.9763V31.994ZM130.544 46.664V48.2688H117.892C118.021 49.5945 118.479 50.5886 119.266 51.2512C120.053 51.9139 121.151 52.2452 122.561 52.2452C123.699 52.2452 124.865 52.0687 126.059 51.7157C127.256 51.3622 128.485 50.829 129.746 50.1158V54.4659C128.465 54.9704 127.185 55.3522 125.904 55.6113C124.624 55.8704 123.343 56 122.063 56C118.998 56 116.616 55.1876 114.916 53.5627C113.22 51.9375 112.371 49.6581 112.371 46.7247C112.371 43.8447 113.205 41.5806 114.873 39.9323C116.54 38.2803 118.837 37.4544 121.763 37.4544C124.424 37.4544 126.553 38.2904 128.149 39.9624C129.746 41.6311 130.544 43.8649 130.544 46.664ZM124.98 44.7869C124.98 43.7136 124.68 42.8491 124.08 42.1931C123.48 41.5334 122.696 41.2036 121.729 41.2036C120.68 41.2036 119.829 41.5115 119.174 42.1274C118.519 42.7429 118.111 43.6294 117.95 44.7869H124.98ZM145.735 38.4283V42.7176C144.577 42.2131 143.458 41.8347 142.377 41.5822C141.3 41.3298 140.282 41.2036 139.324 41.2036C138.295 41.2036 137.53 41.3382 137.031 41.6073C136.534 41.8764 136.285 42.2887 136.285 42.844C136.285 43.2981 136.474 43.6463 136.851 43.8887C137.229 44.1274 137.906 44.3056 138.884 44.4232L139.837 44.5647C142.611 44.9315 144.475 45.5354 145.43 46.3766C146.388 47.2175 146.867 48.5379 146.867 50.338C146.867 52.2183 146.201 53.6329 144.869 54.5817C143.54 55.5272 141.556 56 138.917 56C137.798 56 136.64 55.9074 135.443 55.7221C134.25 55.5373 133.023 55.2614 131.762 54.8947V50.6053C132.842 51.1503 133.948 51.5607 135.08 51.8365C136.216 52.109 137.367 52.2452 138.535 52.2452C139.596 52.2452 140.393 52.0939 140.925 51.7914C141.461 51.4851 141.728 51.0309 141.728 50.4288C141.728 49.9239 141.544 49.5488 141.177 49.3034C140.809 49.0577 140.075 48.8659 138.976 48.7282L138.022 48.6018C135.613 48.2855 133.924 47.7017 132.957 46.8505C131.989 45.9997 131.505 44.7061 131.505 42.9699C131.505 41.0996 132.119 39.7137 133.348 38.8119C134.581 37.9069 136.466 37.4544 139.004 37.4544C140.004 37.4544 141.053 37.5334 142.15 37.6916C143.249 37.8464 144.444 38.0919 145.735 38.4283ZM154.737 32.8621V37.8781H160.32V41.9152H154.737V49.4042C154.737 50.225 154.893 50.7802 155.206 51.0697C155.519 51.3589 156.14 51.5035 157.069 51.5035H159.851V55.5406H155.206C153.071 55.5406 151.556 55.0764 150.663 54.1479C149.773 53.2158 149.328 51.6345 149.328 49.4042V41.9152H146.633V37.8781H149.328V32.8621H154.737ZM162.282 37.8781H167.692V55.5406H162.282V37.8781ZM162.282 31H167.692V35.6073H162.282V31ZM190.183 53.7893C188.732 54.5262 187.226 55.0797 185.664 55.4498C184.103 55.8166 182.49 56 180.826 56C177.065 56 174.086 54.9032 171.89 52.7096C169.693 50.516 168.595 47.5438 168.595 43.7929C168.595 39.9978 169.712 37.012 171.947 34.8355C174.186 32.6586 177.252 31.5702 181.145 31.5702C182.645 31.5702 184.082 31.7183 185.456 32.0146C186.834 32.3071 188.132 32.7427 189.351 33.3215V38.1911C188.093 37.4475 186.842 36.8923 185.597 36.5255C184.352 36.1558 183.103 35.9709 181.851 35.9709C179.536 35.9709 177.75 36.6471 176.496 37.9995C175.241 39.3486 174.614 41.2797 174.614 43.7929C174.614 46.2824 175.218 48.2066 176.428 49.5657C177.637 50.9214 179.355 51.5993 181.581 51.5993C182.187 51.5993 182.75 51.5607 183.269 51.4834C183.789 51.4025 184.255 51.278 184.668 51.1098V46.5376H181.111V42.4654H190.183V53.7893ZM200.202 41.4915C199.002 41.4915 198.087 41.9407 197.458 42.839C196.829 43.737 196.515 45.0322 196.515 46.7247C196.515 48.4167 196.829 49.7136 197.458 50.6153C198.087 51.5137 199.002 51.9629 200.202 51.9629C201.382 51.9629 202.284 51.5137 202.906 50.6153C203.532 49.7136 203.845 48.4167 203.845 46.7247C203.845 45.0322 203.532 43.737 202.906 42.839C202.284 41.9407 201.382 41.4915 200.202 41.4915ZM200.202 37.4544C203.114 37.4544 205.39 38.2751 207.028 39.9167C208.667 41.5553 209.487 43.8246 209.487 46.7247C209.487 49.6281 208.667 51.9005 207.028 53.5421C205.39 55.1807 203.114 56 200.202 56C197.279 56 194.994 55.1807 193.346 53.5421C191.697 51.9005 190.873 49.6281 190.873 46.7247C190.873 43.8246 191.697 41.5553 193.346 39.9167C194.994 38.2751 197.279 37.4544 200.202 37.4544Z" fill="#111827"/>
</svg>
