<svg width="250" height="76.389" viewBox="0 0 720 220" fill="none" xmlns="http://www.w3.org/2000/svg">
  <g transform="translate(110 110)">
    <circle cx="0" cy="0" r="11" fill="#7C3AED"/>
    <path d="M0 -62 L0 -32" stroke="#FFB703" stroke-width="8" stroke-linecap="round"/>
    <path d="M0 62 L0 32" stroke="#06D6A0" stroke-width="8" stroke-linecap="round"/>
    <path d="M-62 0 L-32 0" stroke="#3A86FF" stroke-width="8" stroke-linecap="round"/>
    <path d="M62 0 L32 0" stroke="#FB5607" stroke-width="8" stroke-linecap="round"/>
    <path d="M-44 -44 L-24 -24" stroke="#FF006E" stroke-width="8" stroke-linecap="round"/>
    <path d="M44 44 L24 24" stroke="#FF006E" stroke-width="8" stroke-linecap="round"/>
    <path d="M44 -44 L24 -24" stroke="#FFBE0B" stroke-width="8" stroke-linecap="round"/>
    <path d="M-44 44 L-24 24" stroke="#00C2FF" stroke-width="8" stroke-linecap="round"/>
    <circle cx="0" cy="-76" r="5" fill="#FFB703"/>
    <circle cx="74" cy="0" r="5" fill="#FB5607"/>
    <circle cx="-74" cy="0" r="5" fill="#3A86FF"/>
    <circle cx="0" cy="76" r="5" fill="#06D6A0"/>
  </g>
  <path d="M210.329,75.714 L239.746,75.714 L239.746,83.961 L221.231,83.961 L221.231,91.828 L238.649,91.828 L238.649,100.074 L221.231,100.074 L221.231,118.000 L210.329,118.000 L210.329,75.714 Z M275.077,102.059 L275.077,104.941 L251.378,104.941 Q251.741,108.512 253.952,110.297 Q256.163,112.082 260.123,112.082 Q263.322,112.082 266.676,111.131 Q270.038,110.179 273.581,108.258 L273.581,116.070 Q269.983,117.429 266.386,118.127 Q262.788,118.825 259.190,118.825 Q250.581,118.825 245.805,114.448 Q241.038,110.070 241.038,102.168 Q241.038,94.410 245.723,89.970 Q250.408,85.520 258.628,85.520 Q266.105,85.520 270.591,90.024 Q275.077,94.519 275.077,102.059 Z M264.655,98.688 Q264.655,95.797 262.969,94.030 Q261.283,92.253 258.565,92.253 Q255.619,92.253 253.780,93.912 Q251.940,95.570 251.487,98.688 L264.655,98.688 Z M303.529,87.269 L303.529,94.972 Q300.276,93.613 297.240,92.933 Q294.213,92.253 291.521,92.253 Q288.630,92.253 287.226,92.978 Q285.830,93.703 285.830,95.199 Q285.830,96.422 286.890,97.075 Q287.951,97.718 290.697,98.035 L292.482,98.289 Q300.276,99.277 302.958,101.543 Q305.650,103.808 305.650,108.657 Q305.650,113.722 301.907,116.278 Q298.173,118.825 290.760,118.825 Q287.615,118.825 284.253,118.326 Q280.900,117.828 277.357,116.840 L277.357,109.137 Q280.392,110.605 283.573,111.348 Q286.763,112.082 290.044,112.082 Q293.026,112.082 294.521,111.267 Q296.025,110.442 296.025,108.820 Q296.025,107.460 294.992,106.799 Q293.959,106.137 290.869,105.766 L289.083,105.539 Q282.314,104.687 279.595,102.394 Q276.876,100.102 276.876,95.425 Q276.876,90.387 280.329,87.958 Q283.791,85.520 290.923,85.520 Q293.732,85.520 296.814,85.946 Q299.904,86.363 303.529,87.269 Z M320.391,77.273 L320.391,86.281 L330.849,86.281 L330.849,93.531 L320.391,93.531 L320.391,106.980 Q320.391,109.191 321.270,109.971 Q322.149,110.750 324.759,110.750 L329.970,110.750 L329.970,118.000 L321.270,118.000 Q315.270,118.000 312.760,115.499 Q310.259,112.988 310.259,106.980 L310.259,93.531 L305.211,93.531 L305.211,86.281 L310.259,86.281 L310.259,77.273 L320.391,77.273 Z M334.524,86.281 L344.656,86.281 L344.656,118.000 L334.524,118.000 L334.524,86.281 Z M334.524,73.929 L344.656,73.929 L344.656,82.203 L334.524,82.203 L334.524,73.929 Z M386.784,114.855 Q382.706,116.840 378.320,117.837 Q373.933,118.825 369.257,118.825 Q358.690,118.825 352.519,112.916 Q346.347,107.007 346.347,96.903 Q346.347,86.680 352.627,80.817 Q358.917,74.953 369.855,74.953 Q374.069,74.953 377.930,75.751 Q381.800,76.539 385.225,78.098 L385.225,86.843 Q381.691,84.840 378.193,83.852 Q374.695,82.856 371.178,82.856 Q364.672,82.856 361.146,86.499 Q357.621,90.133 357.621,96.903 Q357.621,103.609 361.019,107.270 Q364.418,110.922 370.671,110.922 Q372.375,110.922 373.834,110.714 Q375.293,110.496 376.453,110.043 L376.453,101.832 L369.792,101.832 L369.792,94.519 L386.784,94.519 L386.784,114.855 Z M405.549,92.770 Q402.178,92.770 400.410,95.190 Q398.643,97.609 398.643,102.168 Q398.643,106.726 400.410,109.155 Q402.178,111.575 405.549,111.575 Q408.866,111.575 410.615,109.155 Q412.373,106.726 412.373,102.168 Q412.373,97.609 410.615,95.190 Q408.866,92.770 405.549,92.770 Z M405.549,85.520 Q413.732,85.520 418.336,89.942 Q422.940,94.356 422.940,102.168 Q422.940,109.989 418.336,114.411 Q413.732,118.825 405.549,118.825 Q397.338,118.825 392.707,114.411 Q388.076,109.989 388.076,102.168 Q388.076,94.356 392.707,89.942 Q397.338,85.520 405.549,85.520 Z" fill="#111827"/>
  <path d="M209.766,136.877 L217.307,136.877 L217.307,138.373 L211.541,138.373 L211.541,142.240 L216.744,142.240 L216.744,143.734 L211.541,143.734 L211.541,150.000 L209.766,150.000 L209.766,136.877 Z M221.073,136.877 L229.370,136.877 L229.370,138.373 L222.848,138.373 L222.848,142.257 L229.097,142.257 L229.097,143.751 L222.848,143.751 L222.848,148.507 L229.527,148.507 L229.527,150.000 L221.073,150.000 L221.073,136.877 Z M241.160,137.307 L241.160,139.040 Q240.150,138.556 239.253,138.320 Q238.356,138.081 237.521,138.081 Q236.072,138.081 235.285,138.643 Q234.497,139.206 234.497,140.243 Q234.497,141.115 235.020,141.560 Q235.543,142.001 237.003,142.274 L238.075,142.493 Q240.060,142.873 241.005,143.827 Q241.950,144.780 241.950,146.377 Q241.950,148.287 240.671,149.272 Q239.394,150.256 236.924,150.256 Q235.993,150.256 234.942,150.045 Q233.893,149.834 232.768,149.421 L232.768,147.593 Q233.848,148.197 234.885,148.507 Q235.923,148.813 236.924,148.813 Q238.443,148.813 239.270,148.217 Q240.097,147.618 240.097,146.510 Q240.097,145.545 239.503,144.999 Q238.910,144.454 237.557,144.181 L236.474,143.970 Q234.489,143.576 233.600,142.732 Q232.714,141.889 232.714,140.384 Q232.714,138.643 233.940,137.642 Q235.167,136.641 237.318,136.641 Q238.243,136.641 239.200,136.809 Q240.159,136.975 241.160,137.307 Z M243.897,136.877 L254.998,136.877 L254.998,138.373 L250.340,138.373 L250.340,150.000 L248.557,150.000 L248.557,138.373 L243.897,138.373 L243.897,136.877 Z M258.764,136.877 L260.539,136.877 L260.539,150.000 L258.764,150.000 L258.764,136.877 Z M267.688,150.000 L262.679,136.877 L264.533,136.877 L268.692,147.924 L272.858,136.877 L274.703,136.877 L269.702,150.000 L267.688,150.000 Z M282.857,138.626 L280.446,145.157 L285.272,145.157 L282.857,138.626 Z M281.853,136.877 L283.866,136.877 L288.867,150.000 L287.022,150.000 L285.827,146.633 L279.912,146.633 L278.717,150.000 L276.843,150.000 L281.853,136.877 Z M292.633,136.877 L294.408,136.877 L294.408,148.507 L300.798,148.507 L300.798,150.000 L292.633,150.000 L292.633,136.877 Z M316.439,138.337 L316.439,143.267 L318.672,143.267 Q319.912,143.267 320.587,142.626 Q321.265,141.984 321.265,140.798 Q321.265,139.619 320.587,138.978 Q319.912,138.337 318.672,138.337 L316.439,138.337 Z M314.664,136.877 L318.672,136.877 Q320.880,136.877 322.007,137.875 Q323.138,138.874 323.138,140.798 Q323.138,142.741 322.007,143.734 Q320.880,144.727 318.672,144.727 L316.439,144.727 L316.439,150.000 L314.664,150.000 L314.664,136.877 Z M326.904,136.877 L328.679,136.877 L328.679,148.507 L335.069,148.507 L335.069,150.000 L326.904,150.000 L326.904,136.877 Z M343.223,138.626 L340.812,145.157 L345.639,145.157 L343.223,138.626 Z M342.219,136.877 L344.232,136.877 L349.233,150.000 L347.388,150.000 L346.193,146.633 L340.278,146.633 L339.083,150.000 L337.210,150.000 L342.219,136.877 Z M351.180,136.877 L362.281,136.877 L362.281,138.373 L357.623,138.373 L357.623,150.000 L355.840,150.000 L355.840,138.373 L351.180,138.373 L351.180,136.877 Z M366.047,136.877 L373.587,136.877 L373.587,138.373 L367.822,138.373 L367.822,142.240 L373.025,142.240 L373.025,143.734 L367.822,143.734 L367.822,150.000 L366.047,150.000 L366.047,136.877 Z M382.680,138.081 Q380.745,138.081 379.606,139.523 Q378.470,140.963 378.470,143.452 Q378.470,145.930 379.606,147.373 Q380.745,148.813 382.680,148.813 Q384.612,148.813 385.743,147.373 Q386.874,145.930 386.874,143.452 Q386.874,140.963 385.743,139.523 Q384.612,138.081 382.680,138.081 Z M382.680,136.641 Q385.439,136.641 387.090,138.491 Q388.744,140.342 388.744,143.452 Q388.744,146.555 387.090,148.405 Q385.439,150.256 382.680,150.256 Q379.913,150.256 378.253,148.411 Q376.597,146.563 376.597,143.452 Q376.597,140.342 378.253,138.491 Q379.913,136.641 382.680,136.641 Z M398.734,143.846 Q399.305,144.040 399.845,144.673 Q400.385,145.306 400.931,146.414 L402.734,150.000 L400.824,150.000 L399.148,146.633 Q398.495,145.314 397.885,144.884 Q397.275,144.454 396.220,144.454 L394.285,144.454 L394.285,150.000 L392.510,150.000 L392.510,136.877 L396.518,136.877 Q398.768,136.877 399.876,137.819 Q400.984,138.758 400.984,140.657 Q400.984,141.897 400.408,142.716 Q399.831,143.531 398.734,143.846 Z M394.285,138.337 L394.285,142.994 L396.518,142.994 Q397.801,142.994 398.456,142.401 Q399.111,141.807 399.111,140.657 Q399.111,139.507 398.456,138.922 Q397.801,138.337 396.518,138.337 L394.285,138.337 Z M406.500,136.877 L409.147,136.877 L412.493,145.807 L415.860,136.877 L418.507,136.877 L418.507,150.000 L416.774,150.000 L416.774,138.477 L413.391,147.477 L411.607,147.477 L408.224,138.477 L408.224,150.000 L406.500,150.000 L406.500,136.877 Z" fill="#6B7280"/>
</svg>
